<svg width="390" height="844" viewBox="0 0 390 844" fill="none" xmlns="http://www.w3.org/2000/svg">
<g opacity="0.3" clip-path="url(#clip0_1_10296)">
<g opacity="0.3">
<path d="M-12.7768 474.099L-69.5806 424.159L-69.1226 423.638L-54.9366 350.227L-54.4786 349.706L16.5113 326.235L73.315 376.175L72.857 376.695L58.442 450.367L57.9841 450.888L-13.0058 474.359L-12.7768 474.099ZM-66.217 422.96L-12.0189 470.61L56.2942 447.555L70.4094 376.852L16.2113 329.203L-52.1019 352.257L-66.217 422.96Z" fill="white"/>
<path d="M145.229 595.467L99.8903 555.607L100.348 555.086L111.795 496.35L112.253 495.83L169.039 476.955L214.377 516.815L213.919 517.336L202.473 576.071L202.015 576.592L145.229 595.467ZM102.535 554.7L145.79 592.728L200.388 574.238L211.732 517.722L168.478 479.694L113.88 498.183L102.535 554.7Z" fill="white"/>
<path d="M-53.7348 631.559L-101.679 589.408L-101.221 588.887L-89.0167 526.662L-88.5587 526.141L-28.4096 506.068L19.5348 548.219L19.0769 548.74L6.87221 610.964L6.41426 611.485L-53.7348 631.559ZM-99.0342 588.501L-53.1743 628.819L4.5587 609.392L16.4318 549.646L-29.4281 509.328L-87.1611 528.755L-99.0342 588.501Z" fill="white"/>
<path d="M55.3868 692.402L28.5483 668.807L35.6375 633.945L69.3046 622.449L96.143 646.044L89.0538 680.906L55.3868 692.402ZM30.2459 668.452L55.7816 690.902L88.0116 679.99L94.706 646.628L69.1704 624.178L36.9403 635.09L30.2459 668.452Z" fill="white"/>
<path d="M163.652 663.84L136.814 640.244L143.903 605.382L177.57 593.886L204.409 617.482L197.319 652.344L163.652 663.84ZM138.511 639.89L164.047 662.34L196.277 651.428L202.972 618.065L177.436 595.615L145.206 606.527L138.511 639.89Z" fill="white"/>
<path d="M287.555 508.195L257.59 481.851L265.405 443.01L302.926 430.284L332.891 456.629L325.075 495.47L287.555 508.195ZM259.517 481.236L287.918 506.206L323.773 494.324L330.964 457.244L302.562 432.274L266.708 444.155L259.517 481.236Z" fill="white"/>
<path d="M210.508 277.927L193.831 263.266L198.086 241.611L219.018 234.618L235.694 249.279L231.439 270.934L210.508 277.927ZM194.779 262.714L210.673 276.688L230.886 269.986L234.944 249.081L219.049 235.107L198.837 241.809L194.779 262.714Z" fill="white"/>
<path d="M33.4926 258.052L9.52035 236.976L15.8833 206.093L45.6972 195.827L69.6695 216.903L63.3066 247.786L33.4926 258.052ZM11.2179 236.622L33.8873 256.552L62.7538 246.838L68.6904 216.965L46.021 197.035L17.1545 206.749L11.2179 236.622Z" fill="white"/>
<path d="M178.575 426.697L139.229 392.106L149.713 341.297L150.171 340.776L199.251 324.361L238.596 358.952L228.112 409.761L227.655 410.282L178.575 426.697ZM141.646 391.46L178.907 424.218L226.06 408.418L235.691 359.63L198.429 326.871L151.277 342.672L141.646 391.46Z" fill="white"/>
<path d="M15.2318 329.266L32.9078 256.614L34.8976 256.978L17.2215 329.63L15.2318 329.266Z" fill="white"/>
<path d="M198.366 325.892L210.185 276.718L211.685 277.114L199.867 326.288L198.366 325.892Z" fill="white"/>
<path d="M113.264 496.256L56.9814 446.774L55.6077 448.337L111.89 497.819L113.264 496.256Z" fill="white"/>
<path d="M167.728 479.496L177.959 424.771L179.948 425.135L169.228 479.891L167.728 479.496Z" fill="white"/>
<path d="M267.592 442.624L227.726 407.574L226.352 409.137L266.219 444.186L267.592 442.624Z" fill="white"/>
<path d="M291.417 84.4837L234.614 34.5438L235.072 34.0229L249.258 -39.3884L249.716 -39.9093L320.706 -63.3806L377.509 -13.4407L377.051 -12.9198L362.636 60.7519L362.178 61.2728L291.189 84.7441L291.417 84.4837ZM237.977 33.3453L292.175 80.9944L360.489 57.9402L374.604 -12.763L320.406 -60.4122L252.092 -37.358L237.977 33.3453Z" fill="white"/>
<path d="M449.194 206.111L403.855 166.251L404.313 165.73L415.76 106.995L416.218 106.474L473.003 87.5991L518.342 127.459L517.884 127.98L506.437 186.716L505.979 187.236L449.194 206.111ZM406.5 165.344L449.754 203.372L504.353 184.883L515.697 128.366L472.443 90.3385L417.844 108.828L406.5 165.344Z" fill="white"/>
<path d="M250.46 241.943L202.515 199.791L202.973 199.271L215.178 137.046L215.636 136.525L275.785 116.452L323.729 158.603L323.271 159.124L311.067 221.348L310.609 221.869L250.46 241.943ZM205.16 198.885L251.02 239.203L308.753 219.776L320.626 160.03L274.766 119.712L217.033 139.139L205.16 198.885Z" fill="white"/>
<path d="M121.057 266.698L93.1763 242.186L100.692 206.314L135.306 194.266L163.187 218.778L155.672 254.65L121.057 266.698ZM94.8739 241.832L121.191 264.969L154.629 253.734L161.49 219.132L135.172 195.995L101.734 207.23L94.8739 241.832Z" fill="white"/>
<path d="M139.18 105.785L115.728 85.1678L122.123 54.7741L151.447 44.5396L174.898 65.157L168.504 95.5507L139.18 105.785ZM117.165 84.5842L139.574 104.285L167.722 94.8635L173.461 65.7406L151.053 46.0395L122.905 55.4613L117.165 84.5842Z" fill="white"/>
<path d="M359.581 302.787L332.743 279.191L339.832 244.329L373.499 232.834L400.337 256.429L393.248 291.291L359.581 302.787ZM334.44 278.837L359.976 301.287L392.206 290.375L398.9 257.013L373.365 234.563L341.135 245.475L334.44 278.837Z" fill="white"/>
<path d="M417.229 106.901L360.946 57.4189L359.572 58.9816L415.855 108.463L417.229 106.901Z" fill="white"/>
<path d="M173.754 66.459L172.909 64.7927L237.684 32.6258L238.3 34.5525L173.754 66.459Z" fill="white"/>
<path d="M216.907 137.181L167.92 94.1133L166.546 95.6759L215.533 138.743L216.907 137.181Z" fill="white"/>
<path d="M161.813 220.34L160.968 218.673L203.889 198.229L204.505 200.156L161.813 220.34Z" fill="white"/>
</g>
<path d="M17.8494 449.772L18.3073 449.251L75.7798 429.595L76.2377 429.074L122.619 469.85L110.746 529.596L110.288 530.117L52.8153 549.773L52.3574 550.294L5.97629 509.517L17.8494 449.772ZM108.203 528.284L119.745 471.018L75.7088 432.303L20.3919 451.084L8.8503 508.35L52.8862 547.065L108.203 528.284Z" fill="#2C6D37" fill-opacity="0.3"/>
<path d="M-98.9164 346.654L-52.5136 330.656L-15.2841 362.925L-24.7494 410.473L-71.1522 426.471L-108.382 394.202L-98.9164 346.654ZM-26.7708 409.62L-17.7002 363.571L-52.8768 332.645L-97.3846 347.539L-106.455 393.587L-71.2786 424.513L-26.7708 409.62Z" fill="#2C6D37" fill-opacity="0.3"/>
<path d="M-106.665 508.376L-106.207 507.855L-57.8775 491.242L-18.5633 525.344L-28.5892 575.632L-29.0472 576.153L-77.3764 592.766L-116.691 558.664L-106.665 508.376ZM-30.121 574.747L-20.4899 525.959L-57.7511 493.2L-104.904 509.001L-114.535 557.789L-77.2739 590.547L-30.121 574.747Z" fill="#2C6D37" fill-opacity="0.3"/>
<path d="M9.74592 609.797L33.5513 601.637L52.5728 618.36L47.5282 643.014L23.7229 651.175L4.70143 634.452L9.51694 610.058L9.74592 609.797ZM46.7465 642.327L51.3647 618.683L33.125 602.647L10.2671 610.255L5.64888 633.9L23.8886 649.935L46.7465 642.327Z" fill="#2C6D37" fill-opacity="0.3"/>
<path d="M-46.1216 239.31L-15.5891 228.753L8.6437 250.057L2.31239 281.43L-28.2201 291.988L-52.4529 270.683L-46.1216 239.31ZM1.04119 280.774L7.20668 250.641L-15.9838 230.253L-45.0793 240.227L-51.2448 270.36L-28.0543 290.748L1.04119 280.774Z" fill="#2C6D37" fill-opacity="0.3"/>
<path d="M144.53 291.492L161.609 285.729L175.158 297.641L171.629 315.317L154.551 321.08L141.002 309.168L144.53 291.492ZM170.848 314.629L174.179 297.704L161.151 286.249L144.791 291.721L141.46 308.647L154.488 320.101L170.848 314.629Z" fill="#2C6D37" fill-opacity="0.3"/>
<path d="M180.406 424.614L204.93 416.162L224.212 433.114L219.199 458.258L194.675 466.71L175.393 449.758L180.406 424.614ZM218.188 457.831L223.265 433.666L204.764 417.401L181.448 425.53L176.601 449.435L195.102 465.7L218.188 457.831Z" fill="#2C6D37" fill-opacity="0.3"/>
<path d="M178.443 519.853L204.893 510.785L225.999 529.341L220.394 556.735L193.944 565.802L172.838 547.247L178.443 519.853ZM219.613 556.048L224.791 529.664L204.467 511.796L178.964 520.311L173.785 546.694L194.11 564.563L219.613 556.048Z" fill="#2C6D37" fill-opacity="0.3"/>
<path d="M32.6011 308.983L72.5057 295.122L104.524 322.809L96.1163 363.9L56.2117 377.761L24.1935 350.074L32.6011 308.983ZM94.8451 363.244L102.858 323.653L72.3715 296.851L34.1329 309.868L26.1201 349.459L56.6065 376.262L94.8451 363.244Z" fill="#2C6D37" fill-opacity="0.3"/>
<path d="M120.036 471.736L176.861 449.664L176.277 448.227L119.681 470.039L120.036 471.736Z" fill="#2C6D37" fill-opacity="0.3"/>
<path d="M103.837 323.59L142.21 308.844L141.657 307.896L103.285 322.643L103.837 323.59Z" fill="#2C6D37" fill-opacity="0.3"/>
<path d="M20.8181 450.074L-24.7812 409.984L-25.9261 411.287L19.6733 451.376L20.8181 450.074Z" fill="#2C6D37" fill-opacity="0.3"/>
<path d="M32.8642 602.417L34.3645 602.813L53.636 547.263L52.1358 546.868L32.8642 602.417Z" fill="#2C6D37" fill-opacity="0.3"/>
<path d="M11.214 609.703L-28.6528 574.653L-29.7977 575.956L10.0692 611.005L11.214 609.703Z" fill="#2C6D37" fill-opacity="0.3"/>
<path d="M-17.1474 364.519L25.9234 350.209L25.3391 348.772L-17.7318 363.082L-17.1474 364.519Z" fill="#2C6D37" fill-opacity="0.3"/>
<path d="M34.5282 308.368L2.21777 279.962L1.07295 281.264L33.3833 309.67L34.5282 308.368Z" fill="#2C6D37" fill-opacity="0.3"/>
<path d="M300.484 164.024L300.942 163.503L358.415 143.847L358.873 143.326L405.254 184.102L393.38 243.848L392.922 244.369L335.45 264.025L334.992 264.546L288.611 223.769L300.484 164.024ZM390.838 242.536L402.38 185.269L358.344 146.555L303.027 165.335L291.485 222.602L335.521 261.317L390.838 242.536Z" fill="#2C6D37" fill-opacity="0.3"/>
<path d="M183.718 60.9056L230.121 44.9075L267.351 77.1768L257.885 124.725L211.483 140.723L174.253 108.454L183.718 60.9056ZM255.864 123.872L264.935 77.8231L229.758 46.897L185.25 61.7905L176.18 107.839L211.356 138.765L255.864 123.872Z" fill="#2C6D37" fill-opacity="0.3"/>
<path d="M175.97 222.628L176.428 222.107L224.757 205.494L264.071 239.596L254.046 289.884L253.588 290.405L205.258 307.018L165.944 272.916L175.97 222.628ZM252.514 288.999L262.145 240.211L224.884 207.452L177.731 223.253L168.1 272.041L205.361 304.799L252.514 288.999Z" fill="#2C6D37" fill-opacity="0.3"/>
<path d="M165.062 350.636L193.439 340.954L215.848 360.655L210.108 389.778L181.731 399.46L159.323 379.759L165.062 350.636ZM208.837 389.122L214.411 361.239L193.044 342.454L166.104 351.553L160.531 379.436L181.897 398.221L208.837 389.122Z" fill="#2C6D37" fill-opacity="0.3"/>
<path d="M292.381 324.048L316.186 315.888L335.208 332.611L330.163 357.265L306.358 365.426L287.336 348.703L292.152 324.309L292.381 324.048ZM329.381 356.578L333.999 332.934L315.76 316.898L292.902 324.506L288.284 348.15L306.523 364.186L329.381 356.578Z" fill="#2C6D37" fill-opacity="0.3"/>
<path d="M110.93 163.139L138.099 153.78L159.726 172.794L154.153 200.677L126.984 210.036L105.357 191.023L110.93 163.139ZM153.142 200.25L158.518 173.117L137.673 154.79L111.452 163.597L106.075 190.731L126.921 209.057L153.142 200.25Z" fill="#2C6D37" fill-opacity="0.3"/>
<path d="M122.802 72.9175L149.971 63.5584L171.598 82.5722L166.025 110.456L138.856 119.815L117.229 100.801L122.802 72.9175ZM165.014 110.029L170.39 82.8953L149.545 64.5688L123.324 73.3757L117.947 100.509L138.793 118.836L165.014 110.029Z" fill="#2C6D37" fill-opacity="0.3"/>
<path d="M236.252 -46.6663L266.785 -57.2239L291.018 -35.9193L284.686 -4.54653L254.154 6.01111L229.921 -15.2936L236.252 -46.6663ZM283.415 -5.20242L289.581 -35.3357L266.39 -55.724L237.295 -45.75L231.129 -15.6167L254.32 4.77164L283.415 -5.20242Z" fill="#2C6D37" fill-opacity="0.3"/>
<path d="M315.465 22.9742L355.37 9.11281L387.388 36.8004L378.981 77.8913L339.076 91.7527L307.058 64.0651L315.465 22.9742ZM377.709 77.2354L385.722 37.6444L355.236 10.8418L316.997 23.8592L308.984 63.4501L339.471 90.2528L377.709 77.2354Z" fill="#2C6D37" fill-opacity="0.3"/>
<path d="M386.211 37.6136L424.845 23.0963L424.26 21.6591L385.659 36.6659L386.211 37.6136Z" fill="#2C6D37" fill-opacity="0.3"/>
<path d="M303.192 164.096L257.593 124.007L256.448 125.309L302.047 165.398L303.192 164.096Z" fill="#2C6D37" fill-opacity="0.3"/>
<path d="M315.238 316.44L316.738 316.835L336.01 261.285L334.51 260.89L315.238 316.44Z" fill="#2C6D37" fill-opacity="0.3"/>
<path d="M293.849 323.955L253.982 288.905L252.838 290.207L292.704 325.257L293.849 323.955Z" fill="#2C6D37" fill-opacity="0.3"/>
<path d="M192.523 341.996L194.024 342.392L205.913 305.747L204.413 305.352L192.523 341.996Z" fill="#2C6D37" fill-opacity="0.3"/>
<path d="M265.487 78.7709L308.558 64.4609L307.974 63.0237L265.132 77.0733L265.487 78.7709Z" fill="#2C6D37" fill-opacity="0.3"/>
<path d="M317.163 22.6201L284.853 -5.78613L283.708 -4.48394L316.018 23.9223L317.163 22.6201Z" fill="#2C6D37" fill-opacity="0.3"/>
</g>
<defs>
<clipPath id="clip0_1_10296">
<rect width="541.242" height="1075.7" fill="white" transform="translate(333.258 -322) rotate(41.3208)"/>
</clipPath>
</defs>
</svg>
