<svg width="588" height="1139" viewBox="0 0 588 1139" fill="none" xmlns="http://www.w3.org/2000/svg">
<g opacity="0.3" clip-path="url(#clip0_1_8016)">
<g opacity="0.3">
<path d="M-112.488 437.618L-112.488 278.469L-111.028 278.469L24.6912 198.895L26.1506 198.895L161.87 278.469L161.87 437.618L160.411 437.618L23.9616 517.192L22.5022 517.192L-113.217 437.618L-112.488 437.618ZM-105.921 282.119L-105.921 433.968L25.4209 509.892L156.762 433.968L156.762 282.119L25.4209 206.195L-105.921 282.119Z" fill="white"/>
<path d="M-85.4897 855.93L-85.4897 728.903L-84.0304 728.903L24.6912 665.39L26.1505 665.39L134.872 728.903L134.872 855.93L133.413 855.93L24.6912 919.444L23.2318 919.444L-85.4897 855.93ZM-80.382 731.823L-80.382 853.01L24.6912 913.603L129.764 853.01L129.764 731.823L24.6912 671.23L-80.382 731.823Z" fill="white"/>
<path d="M250.891 959.596L250.891 875.642L323.128 834.029L395.366 875.642L395.366 959.596L323.128 1001.21L250.891 959.596ZM254.539 877.832L254.539 957.406L323.128 997.558L391.718 957.406L391.718 877.832L323.128 837.68L254.539 877.832Z" fill="white"/>
<path d="M507.006 517.922L507.006 471.199L547.138 447.838L587.271 471.199L587.271 517.922L547.138 541.283L507.006 517.922ZM509.195 471.929L509.195 516.462L547.868 539.093L585.811 516.462L585.811 471.929L547.138 449.298L508.466 471.929L509.195 471.929Z" fill="white"/>
<path d="M292.482 210.575L292.482 143.411L350.126 110.56L407.771 143.411L407.771 210.575L350.126 243.427L292.482 210.575ZM295.401 145.602L295.401 209.115L350.856 241.237L406.311 209.115L406.311 145.602L350.856 113.48L295.401 145.602Z" fill="white"/>
<path d="M98.3881 48.5061L98.3881 -25.228L161.87 -61L225.352 -25.228L225.352 48.5061L161.87 84.278L98.3881 48.5061ZM101.307 -23.0379L101.307 46.3159L161.87 81.3579L222.433 46.3159L222.433 -23.0379L161.87 -57.3498L101.307 -22.3079L101.307 -23.0379Z" fill="white"/>
<path d="M228.27 674.15L228.27 563.914L323.127 509.891L324.587 509.891L418.715 564.644L418.715 674.88L323.857 728.903L322.398 728.903L228.27 674.15ZM232.648 566.834L232.648 671.23L323.127 723.792L413.607 671.229L413.607 566.834L323.127 514.271L232.648 566.834Z" fill="white"/>
<path d="M155.303 280.658L294.671 207.654L296.13 211.304L156.762 284.309L155.303 280.658Z" fill="white"/>
<path d="M414.337 565.375L509.195 515.732L510.654 518.653L415.797 568.295L414.337 565.375Z" fill="white"/>
<path d="M26.8799 667.58L26.8799 509.892L22.5018 509.892L22.5018 667.58L26.8799 667.58Z" fill="white"/>
<path d="M129.035 730.363L229.73 670.5L231.919 674.15L131.224 733.283L129.035 730.363Z" fill="white"/>
<path d="M326.047 836.95L326.047 725.254L321.669 725.254L321.669 836.95L326.047 836.95Z" fill="white"/>
</g>
<path d="M0.0350113 536.275L1.49432 536.275L112.405 599.789L113.864 599.789L113.864 729.736L2.95372 793.98L1.49433 793.98L-109.416 730.466L-110.876 730.466L-110.876 600.519L0.0350113 536.275ZM1.49433 788.139L108.027 726.816L108.027 603.439L1.49432 542.116L-105.038 603.439L-105.038 726.816L1.49433 788.139Z" fill="#2C6D37" fill-opacity="0.2"/>
<path d="M0.764397 208.487L90.5145 259.59L91.2441 363.256L2.95348 414.359L-86.7966 363.256L-87.5263 259.59L0.764397 208.487ZM1.4941 409.978L86.8661 360.336L86.8661 261.78L1.49409 212.137L-83.8779 261.78L-83.8779 360.336L1.4941 409.978Z" fill="#2C6D37" fill-opacity="0.2"/>
<path d="M243.746 142.053L302.85 175.635L302.85 243.528L244.476 277.11L185.372 243.528L185.372 175.635L243.746 142.053ZM243.746 274.19L299.931 242.068L299.931 177.095L243.746 144.973L187.561 177.095L187.561 242.068L243.746 274.19Z" fill="#2C6D37" fill-opacity="0.2"/>
<path d="M426.165 515.834L459 534.815L459 572.777L426.165 591.758L393.329 572.777L393.329 534.815L426.165 515.834ZM426.165 589.568L457.541 571.317L457.541 534.815L426.165 516.564L394.789 534.815L394.789 571.317L426.165 589.568Z" fill="#2C6D37" fill-opacity="0.2"/>
<path d="M266.366 757.477L313.795 784.488L313.795 838.511L267.096 865.523L219.667 838.511L219.667 784.488L266.366 757.477ZM266.366 863.332L311.606 837.051L311.606 785.218L266.366 759.667L221.856 785.218L221.856 837.051L266.366 863.332Z" fill="#2C6D37" fill-opacity="0.2"/>
<path d="M112.404 887.425L163.481 916.626L163.481 975.76L112.404 1004.96L61.3269 975.76L61.3269 916.626L112.404 887.425ZM112.404 1002.77L161.292 974.3L161.292 917.356L112.404 888.885L63.516 917.356L63.516 974.3L112.404 1002.77Z" fill="#2C6D37" fill-opacity="0.2"/>
<path d="M243.746 363.985L321.092 407.788L321.821 496.853L245.205 540.655L167.86 496.853L167.13 407.788L243.746 363.985ZM244.476 537.735L318.173 495.393L318.173 409.978L244.476 367.636L170.779 409.978L170.779 495.393L244.476 537.735Z" fill="#2C6D37" fill-opacity="0.2"/>
<path d="M108.027 727.545L221.127 787.408L222.586 784.488L109.486 724.625L108.027 727.545Z" fill="#2C6D37" fill-opacity="0.2"/>
<path d="M318.903 496.123L395.519 537.005L396.979 534.085L319.633 493.933L318.903 496.123Z" fill="#2C6D37" fill-opacity="0.2"/>
<path d="M3.68262 540.656L3.68262 412.898L0.0342982 412.898L0.0343038 540.656L3.68262 540.656Z" fill="#2C6D37" fill-opacity="0.2"/>
<path d="M86.1362 362.526L168.589 410.708L170.049 407.788L88.3252 359.605L86.1362 362.526Z" fill="#2C6D37" fill-opacity="0.2"/>
<path d="M246.665 366.175L246.665 275.65L243.017 275.65L243.017 366.175L246.665 366.175Z" fill="#2C6D37" fill-opacity="0.2"/>
</g>
<defs>
<clipPath id="clip0_1_8016">
<rect width="1139" height="1355" fill="white" transform="translate(588) rotate(90)"/>
</clipPath>
</defs>
</svg>
