<svg width="390" height="1166" viewBox="0 0 390 1166" fill="none" xmlns="http://www.w3.org/2000/svg">
<g opacity="0.3" clip-path="url(#clip0_1_10209)">
<g opacity="0.3">
<path d="M211.52 796.099L268.324 746.159L267.866 745.638L253.68 672.227L253.222 671.706L182.232 648.235L125.428 698.175L125.886 698.695L140.301 772.367L140.759 772.888L211.749 796.359L211.52 796.099ZM264.96 744.96L210.762 792.61L142.449 769.555L128.334 698.852L182.532 651.203L250.845 674.257L264.96 744.96Z" fill="white"/>
<path d="M53.5141 917.466L98.8529 877.606L98.3949 877.085L86.9481 818.35L86.4902 817.829L29.7046 798.954L-15.6341 838.814L-15.1762 839.335L-3.7294 898.071L-3.2715 898.591L53.5141 917.466ZM96.2078 876.699L52.9535 914.727L-1.64487 896.238L-12.9891 839.721L30.2651 801.693L84.8636 820.183L96.2078 876.699Z" fill="white"/>
<path d="M252.478 953.559L300.422 911.408L299.964 910.887L287.76 848.662L287.302 848.141L227.153 828.068L179.208 870.219L179.666 870.74L191.871 932.964L192.329 933.485L252.478 953.559ZM297.777 910.501L251.918 950.819L194.184 931.392L182.311 871.646L228.171 831.328L285.904 850.755L297.777 910.501Z" fill="white"/>
<path d="M381.88 978.314L409.761 953.802L402.246 917.929L367.631 905.882L339.75 930.393L347.266 966.266L381.88 978.314ZM408.064 953.447L381.746 976.585L348.308 965.349L341.448 930.748L367.765 907.61L401.203 918.846L408.064 953.447Z" fill="white"/>
<path d="M363.757 817.401L387.208 796.784L380.814 766.39L351.489 756.156L328.038 776.773L334.433 807.167L363.757 817.401ZM385.771 796.2L363.362 815.901L335.214 806.48L329.475 777.357L351.884 757.656L380.032 767.078L385.771 796.2Z" fill="white"/>
<path d="M143.356 1014.4L170.195 990.807L163.106 955.945L129.439 944.449L102.6 968.045L109.689 1002.91L143.356 1014.4ZM168.497 990.453L142.962 1012.9L110.732 1001.99L104.037 968.628L129.573 946.178L161.803 957.09L168.497 990.453Z" fill="white"/>
<path d="M35.0908 985.84L61.9292 962.245L54.8401 927.383L21.173 915.887L-5.6655 939.482L1.4237 974.344L35.0908 985.84ZM60.2317 961.89L34.6961 984.34L2.46597 973.428L-4.22846 940.066L21.3072 917.616L53.5372 928.528L60.2317 961.89Z" fill="white"/>
<path d="M-11.7646 599.926L4.91176 585.265L0.656699 563.61L-20.2747 556.617L-36.951 571.278L-32.696 592.933L-11.7646 599.926ZM3.9643 584.713L-11.9303 598.687L-32.1432 591.985L-36.2009 571.08L-20.3063 557.106L-0.0933865 563.808L3.9643 584.713Z" fill="white"/>
<path d="M165.251 580.052L189.223 558.976L182.86 528.093L153.046 517.827L129.074 538.903L135.437 569.786L165.251 580.052ZM187.525 558.622L164.856 578.552L135.989 568.838L130.053 538.965L152.722 519.035L181.589 528.749L187.525 558.622Z" fill="white"/>
<path d="M284.002 598.471L310.32 575.334L303.167 541.451L270.479 530.018L244.162 553.155L251.314 587.038L284.002 598.471ZM308.622 574.98L283.868 596.742L252.357 586.122L245.859 553.51L270.613 531.747L302.125 542.367L308.622 574.98Z" fill="white"/>
<path d="M20.168 748.697L59.5137 714.106L49.0299 663.297L48.572 662.776L-0.507417 646.361L-39.8531 680.952L-29.3693 731.761L-28.9114 732.282L20.168 748.697ZM57.0976 713.46L19.8365 746.218L-27.3164 730.418L-36.9475 681.63L0.313673 648.871L47.4665 664.672L57.0976 713.46Z" fill="white"/>
<path d="M183.511 651.266L165.835 578.614L163.846 578.978L181.522 651.63L183.511 651.266Z" fill="white"/>
<path d="M0.376742 647.892L-11.4415 598.718L-12.9417 599.114L-1.12347 648.288L0.376742 647.892Z" fill="white"/>
<path d="M85.4791 818.256L141.762 768.774L143.136 770.337L86.8529 819.819L85.4791 818.256Z" fill="white"/>
<path d="M329.183 778.075L330.028 776.409L265.252 744.242L264.407 745.908L329.183 778.075Z" fill="white"/>
<path d="M285.541 848.766L334.527 805.698L335.901 807.261L286.914 850.328L285.541 848.766Z" fill="white"/>
<path d="M340.895 931.696L341.74 930.029L299.048 909.845L297.943 911.74L340.895 931.696Z" fill="white"/>
<path d="M31.0155 801.496L20.7845 746.771L18.7948 747.135L29.5153 801.892L31.0155 801.496Z" fill="white"/>
<path d="M-51.7164 563.943L-3.77193 521.791L-4.22986 521.271L-16.4345 459.046L-16.8925 458.525L-77.0416 438.452L-124.986 480.603L-124.528 481.124L-112.323 543.348L-111.865 543.869L-51.7164 563.943ZM-6.41697 520.885L-52.2769 561.203L-110.01 541.776L-121.883 482.03L-76.0231 441.712L-18.2901 461.139L-6.41697 520.885Z" fill="white"/>
<path d="M77.6861 588.698L105.567 564.186L98.0514 528.314L63.4368 516.266L35.5561 540.778L43.0716 576.65L77.6861 588.698ZM103.869 563.832L77.552 586.969L44.1138 575.734L37.2536 541.132L63.571 517.995L97.0091 529.23L103.869 563.832Z" fill="white"/>
<path d="M59.5636 427.785L83.0147 407.168L76.6202 376.774L47.2958 366.54L23.8447 387.157L30.2392 417.551L59.5636 427.785ZM81.5777 406.584L59.1689 426.285L31.0209 416.863L25.2817 387.741L47.6905 368.039L75.8385 377.461L81.5777 406.584Z" fill="white"/>
<path d="M-19.9626 209.116L6.35478 185.979L-0.797583 152.096L-33.4856 140.663L-59.8029 163.8L-52.6505 197.683L-19.9626 209.116ZM4.65721 185.624L-20.0967 207.387L-51.6083 196.767L-58.1053 164.154L-33.3514 142.392L-2.10042 153.241L4.39664 185.853L4.65721 185.624Z" fill="white"/>
<path d="M24.9894 388.459L25.8343 386.793L-38.9413 354.626L-39.5572 356.553L24.9894 388.459Z" fill="white"/>
<path d="M-18.1635 459.181L30.8232 416.113L32.1971 417.676L-16.7897 460.743L-18.1635 459.181Z" fill="white"/>
<path d="M36.9298 542.34L37.7747 540.673L-5.14585 520.229L-5.76177 522.156L36.9298 542.34Z" fill="white"/>
</g>
<path d="M180.894 771.772L180.436 771.251L122.963 751.595L122.505 751.074L76.1244 791.851L87.9975 851.597L88.4554 852.117L145.928 871.774L146.386 872.295L192.767 831.518L180.894 771.772ZM90.54 850.285L78.9984 793.018L123.034 754.303L178.351 773.084L189.893 830.351L145.857 869.066L90.54 850.285Z" fill="#2C6D37" fill-opacity="0.3"/>
<path d="M297.66 668.654L251.257 652.656L214.028 684.925L223.493 732.473L269.896 748.471L307.125 716.202L297.66 668.654ZM225.514 731.62L216.444 685.571L251.62 654.645L296.128 669.539L305.199 715.587L270.022 746.513L225.514 731.62Z" fill="#2C6D37" fill-opacity="0.3"/>
<path d="M305.408 830.376L304.95 829.855L256.621 813.242L217.307 847.344L227.332 897.632L227.79 898.153L276.12 914.766L315.434 880.664L305.408 830.376ZM228.864 896.747L219.233 847.959L256.494 815.2L303.647 831.001L313.278 879.789L276.017 912.547L228.864 896.747Z" fill="#2C6D37" fill-opacity="0.3"/>
<path d="M316.054 958.614L287.677 948.932L265.269 968.633L271.008 997.756L299.385 1007.44L321.794 987.737L316.054 958.614ZM272.279 997.1L266.706 969.216L288.072 950.431L315.012 959.53L320.586 987.414L299.219 1006.2L272.279 997.1Z" fill="#2C6D37" fill-opacity="0.3"/>
<path d="M188.997 931.797L165.192 923.636L146.17 940.359L151.215 965.014L175.02 973.174L194.042 956.451L189.226 932.057L188.997 931.797ZM151.997 964.326L147.378 940.682L165.618 924.647L188.476 932.255L193.094 955.899L174.855 971.935L151.997 964.326Z" fill="#2C6D37" fill-opacity="0.3"/>
<path d="M370.448 770.887L343.279 761.528L321.652 780.542L327.225 808.425L354.394 817.784L376.021 798.771L370.448 770.887ZM328.236 807.999L322.86 780.865L343.705 762.539L369.926 771.345L375.303 798.479L354.457 816.805L328.236 807.999Z" fill="#2C6D37" fill-opacity="0.3"/>
<path d="M358.315 680.895L331.146 671.536L309.519 690.55L315.092 718.433L342.261 727.792L363.888 708.778L358.315 680.895ZM316.103 718.006L310.727 690.873L331.572 672.546L357.794 681.353L363.17 708.487L342.324 726.813L316.103 718.006Z" fill="#2C6D37" fill-opacity="0.3"/>
<path d="M244.865 561.31L214.332 550.753L190.099 572.057L196.431 603.43L226.963 613.988L251.196 592.683L244.865 561.31ZM197.702 602.774L191.536 572.641L214.727 552.253L243.822 562.227L249.988 592.36L226.797 612.748L197.702 602.774Z" fill="#2C6D37" fill-opacity="0.3"/>
<path d="M54.2127 613.492L37.1344 607.728L23.5849 619.64L27.1137 637.316L44.192 643.08L57.7415 631.167L54.2127 613.492ZM27.8954 636.629L24.564 619.703L37.5924 608.249L53.9521 613.721L57.2836 630.647L44.2552 642.101L27.8954 636.629Z" fill="#2C6D37" fill-opacity="0.3"/>
<path d="M18.337 746.614L-6.18692 738.162L-25.4689 755.114L-20.456 780.258L4.06788 788.71L23.3499 771.758L18.337 746.614ZM-19.4453 779.831L-24.5215 755.666L-6.02117 739.401L17.2947 747.53L22.1419 771.435L3.64158 787.7L-19.4453 779.831Z" fill="#2C6D37" fill-opacity="0.3"/>
<path d="M20.2997 841.853L-6.15072 832.786L-27.2567 851.342L-21.6517 878.735L4.79875 887.803L25.9047 869.247L20.2997 841.853ZM-20.87 878.048L-26.0486 851.665L-5.72438 833.796L19.7786 842.311L24.9573 868.695L4.63302 886.563L-20.87 878.048Z" fill="#2C6D37" fill-opacity="0.3"/>
<path d="M166.142 630.983L126.237 617.122L94.2193 644.809L102.627 685.9L142.531 699.761L174.55 672.074L166.142 630.983ZM103.898 685.244L95.8853 645.653L126.372 618.851L164.61 631.868L172.623 671.459L142.137 698.262L103.898 685.244Z" fill="#2C6D37" fill-opacity="0.3"/>
<path d="M78.7064 793.736L21.8815 771.664L22.4658 770.227L79.0617 792.039L78.7064 793.736Z" fill="#2C6D37" fill-opacity="0.3"/>
<path d="M94.9058 645.591L56.533 630.845L57.0858 629.897L95.4586 644.643L94.9058 645.591Z" fill="#2C6D37" fill-opacity="0.3"/>
<path d="M177.925 772.073L223.524 731.984L224.669 733.286L179.07 773.375L177.925 772.073Z" fill="#2C6D37" fill-opacity="0.3"/>
<path d="M165.879 924.417L164.379 924.813L145.107 869.263L146.607 868.868L165.879 924.417Z" fill="#2C6D37" fill-opacity="0.3"/>
<path d="M187.529 931.703L227.396 896.653L228.541 897.956L188.674 933.005L187.529 931.703Z" fill="#2C6D37" fill-opacity="0.3"/>
<path d="M288.594 949.973L287.094 950.369L275.204 913.724L276.704 913.329L288.594 949.973Z" fill="#2C6D37" fill-opacity="0.3"/>
<path d="M215.891 686.519L172.82 672.209L173.404 670.772L216.475 685.082L215.891 686.519Z" fill="#2C6D37" fill-opacity="0.3"/>
<path d="M164.215 630.368L196.525 601.962L197.67 603.264L165.36 631.67L164.215 630.368Z" fill="#2C6D37" fill-opacity="0.3"/>
<path d="M15.0248 382.906L-31.3779 366.908L-68.6075 399.177L-59.1422 446.725L-12.7394 462.723L24.4902 430.454L15.0248 382.906ZM-57.1208 445.872L-66.1914 399.823L-31.0148 368.897L13.493 383.791L22.5636 429.839L-12.613 460.765L-57.1208 445.872Z" fill="#2C6D37" fill-opacity="0.3"/>
<path d="M22.7731 544.628L22.3152 544.107L-26.0141 527.494L-65.3282 561.596L-55.3024 611.884L-54.8445 612.405L-6.51519 629.018L32.7989 594.916L22.7731 544.628ZM-53.7706 610.999L-63.4017 562.211L-26.1405 529.452L21.0123 545.253L30.6434 594.041L-6.61774 626.799L-53.7706 610.999Z" fill="#2C6D37" fill-opacity="0.3"/>
<path d="M33.6814 672.636L5.30437 662.954L-17.1044 682.655L-11.3653 711.778L17.0117 721.46L39.4205 701.759L33.6814 672.636ZM-10.094 711.122L-15.6675 683.239L5.6991 664.454L32.6391 673.553L38.2125 701.436L16.8459 720.221L-10.094 711.122Z" fill="#2C6D37" fill-opacity="0.3"/>
<path d="M87.8128 485.139L60.6439 475.78L39.0168 494.794L44.5902 522.677L71.7591 532.036L93.3862 513.023L87.8128 485.139ZM45.6008 522.25L40.2248 495.117L61.0702 476.79L87.2917 485.597L92.6677 512.731L71.8223 531.057L45.6008 522.25Z" fill="#2C6D37" fill-opacity="0.3"/>
<path d="M75.9408 394.918L48.7718 385.558L27.1447 404.572L32.7181 432.456L59.8871 441.815L81.5142 422.801L75.9408 394.918ZM33.7288 432.029L28.3527 404.895L49.1981 386.569L75.4196 395.376L80.7957 422.509L59.9503 440.836L33.7288 432.029Z" fill="#2C6D37" fill-opacity="0.3"/>
<path d="M6.21969 663.996L4.71952 664.391L-7.1702 627.747L-5.66998 627.351L6.21969 663.996Z" fill="#2C6D37" fill-opacity="0.3"/>
</g>
<defs>
<clipPath id="clip0_1_10209">
<rect width="541.242" height="1075.7" fill="white" transform="matrix(-0.751024 0.660275 0.660275 0.751024 -134.515 0)"/>
</clipPath>
</defs>
</svg>
